<svg xmlns="http://www.w3.org/2000/svg" version="1.1" xmlns:xlink="http://www.w3.org/1999/xlink" width="32" height="32"><svg width="32" height="32" viewBox="0 0 32 32" xmlns="http://www.w3.org/2000/svg">
    <path id="SvgjsPath1045" fill="#ffffff" fill-rule="evenodd" stroke="none" d="M 32 16 C 32 7.163445 24.836555 0 16 0 C 7.163444 0 0 7.163445 0 16 C 0 24.836555 7.163444 32 16 32 C 24.836555 32 32 24.836555 32 16 Z"></path>
    <g id="SvgjsG1044">
        <path id="SvgjsPath1043" fill="#000000" fill-rule="evenodd" stroke="none" d="M 20.812883 25.147079 C 20.326042 25.175272 19.42981 25.159847 18.821257 25.112804 C 18.212706 25.065762 17.127724 24.895588 16.410191 24.734642 C 15.692657 24.573696 14.597263 24.271252 13.975981 24.06254 C 13.3547 23.853828 12.298681 23.421116 11.629272 23.100952 C 10.959865 22.780792 9.914261 22.186716 9.305709 21.780785 C 8.697156 21.374855 7.841893 20.737873 7.405125 20.365269 C 6.968356 19.992666 6.336334 19.328979 6.000632 18.890408 C 5.664929 18.451836 5.252792 17.79426 5.084771 17.429127 C 4.889059 17.003819 4.76279 16.515018 4.733395 16.068907 C 4.701057 15.57814 4.745023 15.22197 4.882317 14.862469 C 4.989461 14.581919 5.256523 14.153803 5.475789 13.911102 C 5.695054 13.668402 6.060523 13.352367 6.287941 13.208803 C 6.515359 13.065241 7.063334 12.826994 7.505662 12.679367 C 7.94799 12.531738 8.819814 12.352308 9.443048 12.280634 C 10.303946 12.181625 10.888795 12.18083 11.877257 12.277317 C 12.592839 12.347168 13.551745 12.480368 14.00816 12.573313 C 14.464575 12.666258 15.23633 12.857811 15.723172 12.998983 C 16.210012 13.140154 16.931978 13.378838 17.327538 13.529387 C 17.723097 13.679935 18.395269 13.971687 18.821257 14.177725 C 19.247246 14.38376 19.826548 14.780731 20.108599 15.059885 C 20.406076 15.354305 20.65411 15.716276 20.699268 15.921888 C 20.753288 16.167835 20.72341 16.358311 20.601665 16.544113 C 20.497705 16.70278 20.234488 16.863756 19.955673 16.939186 C 19.694319 17.009893 19.208359 17.037807 18.862551 17.001976 C 18.520132 16.966494 17.897749 16.809284 17.479477 16.652622 C 17.061207 16.49596 16.354576 16.248272 15.909188 16.102207 C 15.463799 15.956144 14.741835 15.777029 14.304822 15.704174 C 13.867809 15.631319 13.062137 15.594656 12.514441 15.622696 C 11.808621 15.658833 11.357518 15.745739 10.965397 15.921122 C 10.661121 16.057217 10.269111 16.302818 10.094264 16.466909 C 9.919417 16.630997 9.707807 16.925472 9.624019 17.121298 C 9.540231 17.317123 9.472163 17.640762 9.472758 17.840496 C 9.473353 18.04023 9.595249 18.464424 9.743638 18.78315 C 9.892029 19.101875 10.252524 19.618595 10.54474 19.931416 C 10.836956 20.244236 11.349893 20.686163 11.684596 20.913475 C 12.019299 21.140789 12.604203 21.483606 12.98438 21.675293 C 13.364558 21.866978 13.937151 22.120377 14.256807 22.2384 C 14.576467 22.356422 15.211434 22.551779 15.667849 22.672523 C 16.124264 22.793266 16.94581 22.957455 17.493507 23.037388 C 18.041203 23.117317 18.987797 23.182716 19.597048 23.182716 C 20.206301 23.182716 21.027758 23.115973 21.422516 23.034397 C 21.81727 22.95282 22.401325 22.775984 22.720413 22.641424 C 23.039501 22.506865 23.517393 22.243942 23.782396 22.057152 C 24.095951 21.836136 24.366758 21.511757 24.557837 21.128309 C 24.781225 20.680027 24.85146 20.373978 24.85146 19.848816 C 24.85146 19.469166 24.800278 19.023922 24.737719 18.859383 C 24.675161 18.694843 24.647406 18.536791 24.676041 18.508156 C 24.704674 18.479523 24.911726 18.743149 25.136158 19.09399 C 25.36059 19.444836 25.643438 20.010418 25.764715 20.350842 C 25.898193 20.725533 25.986246 21.257748 25.987837 21.69945 C 25.989981 22.295218 25.932682 22.535263 25.67556 23.007675 C 25.502365 23.325893 25.175682 23.732758 24.949596 23.911823 C 24.723509 24.090887 24.272852 24.357662 23.948135 24.504656 C 23.623419 24.651651 22.98431 24.844797 22.527895 24.93387 C 22.071482 25.022942 21.299725 25.118885 20.812883 25.147079 Z"></path>
        <path id="SvgjsPath1042" fill="#000000" fill-rule="evenodd" stroke="none" d="M 19.187571 27.999807 C 18.652416 27.997305 17.959997 27.968067 17.648861 27.934837 C 17.337725 27.901606 16.818411 27.831175 16.494829 27.77832 C 16.171247 27.725468 15.672299 27.63241 15.386053 27.571526 C 15.099808 27.510639 14.607383 27.3895 14.291777 27.302322 C 13.976169 27.215147 13.455901 27.054064 13.135625 26.944361 C 12.81535 26.834658 12.289511 26.639677 11.967095 26.51107 C 11.644678 26.382463 11.09577 26.140139 10.747297 25.97257 C 10.398825 25.805002 9.850797 25.520374 9.529455 25.340063 C 9.208114 25.159752 8.642262 24.808014 8.272005 24.558422 C 7.90175 24.30883 7.339872 23.897905 7.023387 23.645256 C 6.706903 23.392609 6.193001 22.931252 5.881382 22.620018 C 5.569762 22.308788 5.176188 21.881039 5.006772 21.669466 C 4.837355 21.457893 4.541402 21.050589 4.349099 20.764343 C 4.156795 20.478096 3.881402 20.001072 3.737112 19.704287 C 3.592823 19.407501 3.407576 18.959465 3.325453 18.708651 C 3.243329 18.457836 3.140103 18.03879 3.096062 17.777435 C 3.052021 17.516083 3.016095 17.118959 3.016226 16.894939 C 3.016357 16.670921 3.051667 16.315989 3.094691 16.106197 C 3.137715 15.896404 3.143065 15.567554 3.347914 15.650396 C 3.487417 15.706812 3.398048 16.2342 3.409267 16.53289 C 3.423988 16.924797 3.463123 17.201939 3.549862 17.528526 C 3.615969 17.777435 3.761848 18.198692 3.874037 18.464653 C 3.986226 18.730614 4.218495 19.184673 4.390189 19.473673 C 4.561882 19.762674 4.843917 20.186577 5.016932 20.415676 C 5.189946 20.644779 5.511427 21.026897 5.731336 21.264828 C 5.951244 21.50276 6.325284 21.879517 6.562537 22.102068 C 6.799789 22.324619 7.187746 22.66243 7.424661 22.85276 C 7.661578 23.043091 8.047871 23.335316 8.283092 23.502144 C 8.518315 23.668976 9.036615 24.000198 9.434869 24.238199 C 9.833122 24.476198 10.433899 24.808552 10.769925 24.976763 C 11.105952 25.144974 11.67618 25.408611 12.037098 25.562626 C 12.398016 25.716639 13.084489 25.973293 13.562594 26.132967 C 14.040701 26.292641 14.794215 26.51432 15.237072 26.625589 C 15.67993 26.736858 16.337564 26.877712 16.698483 26.938599 C 17.059401 26.999485 17.619446 27.076027 17.943026 27.108694 C 18.286123 27.143332 19.097647 27.168089 19.889929 27.168089 C 20.934635 27.168089 21.399897 27.149031 21.903828 27.085596 C 22.264257 27.040224 22.872911 26.923092 23.256393 26.825304 C 23.639877 26.727516 24.189739 26.55418 24.47831 26.440117 C 24.766884 26.32605 25.186274 26.128717 25.410294 26.001598 C 25.634312 25.874479 25.953133 25.687138 26.111763 25.561495 C 26.276802 25.430779 26.4298 25.204451 26.564327 25.289959 C 26.722921 25.390766 26.442476 25.559542 26.303495 25.682356 C 26.179079 25.792301 26.007921 25.945171 25.908272 26.02755 C 25.808619 26.10993 25.594713 26.270794 25.43292 26.385029 C 25.27113 26.499264 24.945284 26.695318 24.708822 26.820705 C 24.472361 26.946091 24.075235 27.129276 23.826326 27.227783 C 23.577419 27.326288 23.149748 27.469553 22.875948 27.546148 C 22.602148 27.622746 22.154112 27.727816 21.880312 27.779638 C 21.606514 27.831461 21.107563 27.903223 20.771536 27.93911 C 20.414402 27.977251 19.756342 28.002468 19.187571 27.999807 Z"></path>
        <path id="SvgjsPath1041" fill="#000000" fill-rule="evenodd" stroke="none" d="M 4.373443 11.456997 C 4.281925 11.849525 8.387919 8.588909 16.185301 10.687641 C 26.499983 13.463928 27.590364 20.717747 27.770878 20.327204 C 28.500792 18.748049 28.022738 8.482508 18.131315 6.026257 C 10.107721 4.033825 4.606451 10.457603 4.373443 11.456997 Z"></path>
    </g>
</svg><style>@media (prefers-color-scheme: light) { :root { filter: none; } }
@media (prefers-color-scheme: dark) { :root { filter: invert(100%); } }
</style></svg>