<?xml version="1.0" encoding="UTF-8"?>
<!-- Generated by Pixelmator Pro 3.6.14 -->
<svg width="904" height="311" viewBox="0 0 904 311" xmlns="http://www.w3.org/2000/svg">
    <g id="AIRCORE-BEARINGS">
        <text id="BEARINGS" xml:space="preserve" x="315" y="254" font-family="Strasua" font-size="92" fill="#ffffff" letter-spacing="15.64">Bearings</text>
        <text id="AIRCORE" xml:space="preserve" x="320" y="162" font-family="Strasua" font-size="127.9" fill="#ffffff">aircore</text>
    </g>
    <g id="Group">
        <path id="Shape-66c" fill="#ffffff" fill-rule="evenodd" stroke="none" d="M 224.5 236.253601 C 220.100006 236.508392 212 236.369003 206.5 235.943817 C 201 235.518646 191.194122 233.980652 184.709167 232.526062 C 178.224213 231.071472 168.324219 228.338013 162.709167 226.451706 C 157.094131 224.565399 147.550003 220.654602 141.5 217.761047 C 135.449997 214.867462 126 209.498322 120.5 205.82959 C 115 202.160858 107.270271 196.4039 103.32283 193.036377 C 99.375381 189.668854 93.663269 183.670532 90.62925 179.706802 C 87.595222 175.743057 83.870392 169.800003 82.351845 166.5 C 80.583031 162.656128 79.441833 158.238419 79.176163 154.206543 C 78.883904 149.771072 79.281258 146.552063 80.522102 143.302948 C 81.490448 140.76738 83.904114 136.898132 85.885803 134.704651 C 87.867485 132.511154 91.170532 129.654892 93.225906 128.357391 C 95.281273 127.059891 100.23378 124.906647 104.231468 123.572418 C 108.229164 122.238174 116.108559 120.616516 121.741249 119.968735 C 129.521912 119.073914 134.807678 119.066727 143.741241 119.938766 C 150.208557 120.570068 158.875 121.773895 163 122.613922 C 167.125 123.453949 174.100006 125.185165 178.5 126.46106 C 182.899994 127.736938 189.425003 129.894119 193 131.254761 C 196.574997 132.615402 202.649994 135.252213 206.5 137.114334 C 210.350006 138.976456 215.585648 142.564224 218.134781 145.087158 C 220.823334 147.748093 223.065018 151.019516 223.47316 152.877808 C 223.96138 155.100632 223.691345 156.822113 222.591049 158.501373 C 221.651459 159.935379 219.272552 161.390259 216.75267 162.071991 C 214.390579 162.711029 209.99855 162.963303 206.873199 162.639465 C 203.778473 162.318787 198.153473 160.897964 194.373199 159.482071 C 190.592941 158.066177 184.206528 155.827621 180.181183 154.507507 C 176.155838 153.187408 169.630829 151.568588 165.681183 150.910141 C 161.731537 150.251694 154.449997 149.920334 149.5 150.173752 C 143.120926 150.500351 139.04393 151.285797 135.5 152.87088 C 132.75 154.100876 129.207077 156.320602 127.626839 157.803619 C 126.0466 159.286621 124.134102 161.948044 123.376839 163.71788 C 122.619576 165.487717 122.004395 168.41272 122.009766 170.21788 C 122.015144 172.023041 123.116821 175.856842 124.457939 178.737427 C 125.799065 181.618027 129.057175 186.288055 131.698166 189.115265 C 134.339172 191.94249 138.975006 195.936554 142 197.990967 C 145.024994 200.045395 150.311264 203.143723 153.747238 204.876144 C 157.183228 206.608582 162.358231 208.898743 165.247238 209.965424 C 168.136261 211.032104 173.875 212.797699 178 213.888962 C 182.125 214.980225 189.550003 216.464142 194.5 217.186539 C 199.449997 217.908936 208.005157 218.5 213.511475 218.5 C 219.017792 218.5 226.442001 217.89679 230.00975 217.159515 C 233.577484 216.422241 238.856079 214.82402 241.739944 213.607895 C 244.62381 212.391754 248.942917 210.015503 251.337967 208.327332 C 254.171829 206.329834 256.619354 203.398148 258.346283 199.932602 C 260.365234 195.881104 261 193.115082 261 188.368744 C 261 184.937546 260.537415 180.913498 259.972015 179.426407 C 259.406647 177.939331 259.155792 176.51088 259.414581 176.25209 C 259.67337 175.993301 261.544678 178.3759 263.573059 181.546768 C 265.60144 184.717621 268.157776 189.829285 269.253845 192.905975 C 270.460205 196.292374 271.256012 201.102448 271.270386 205.094482 C 271.289764 210.478943 270.771912 212.648438 268.44809 216.91803 C 266.882782 219.794006 263.930267 223.471191 261.886932 225.089539 C 259.843597 226.707901 255.77063 229.118973 252.835892 230.447479 C 249.901154 231.776001 244.125 233.521637 240 234.32666 C 235.875 235.131668 228.899994 235.998795 224.5 236.253601 Z"/>
        <path id="Shape" fill="#ffffff" fill-rule="evenodd" stroke="none" d="M 209.810684 252.99826 C 204.974045 252.975647 198.716064 252.711395 195.904068 252.411072 C 193.092072 252.110733 188.39859 251.474182 185.474121 250.99649 C 182.549637 250.518829 178.040222 249.67778 175.453171 249.127502 C 172.866135 248.57724 168.41568 247.482391 165.563278 246.694504 C 162.710861 245.906616 158.008774 244.450775 155.114166 243.459305 C 152.219574 242.467834 147.467117 240.705627 144.553177 239.543304 C 141.639236 238.380966 136.678284 236.190887 133.528854 234.676422 C 130.37941 233.161957 125.426414 230.589539 122.522186 228.959915 C 119.617958 227.330292 114.503883 224.151337 111.157555 221.895569 C 107.811241 219.639801 102.733086 215.925934 99.872749 213.642548 C 97.012413 211.359131 92.367851 207.189453 89.551491 204.376602 C 86.735123 201.563736 83.178055 197.697815 81.646896 195.785645 C 80.115738 193.873505 77.440964 190.192337 75.702957 187.605286 C 73.964951 185.01825 71.47599 180.706985 70.171921 178.024673 C 68.867859 175.342377 67.193634 171.293106 66.451416 169.026276 C 65.70919 166.759476 64.776253 162.972183 64.37822 160.610107 C 63.980179 158.248032 63.655487 154.658905 63.65667 152.634262 C 63.657856 150.609619 63.976978 147.401779 64.365822 145.505722 C 64.754669 143.60965 64.803024 140.637558 66.654419 141.386276 C 67.915222 141.896149 67.107513 146.662598 67.208916 149.362122 C 67.341957 152.904099 67.695656 155.408859 68.479584 158.360519 C 69.077049 160.610107 70.395477 164.417374 71.409424 166.821075 C 72.423378 169.224777 74.522583 173.328491 76.074326 175.94043 C 77.626068 178.552383 80.175049 182.38353 81.738724 184.454117 C 83.302399 186.524704 86.207893 189.978226 88.195389 192.128601 C 90.182892 194.278992 93.5634 197.684052 95.707657 199.695435 C 97.851906 201.706818 101.358192 204.759903 103.499397 206.480072 C 105.64061 208.200256 109.131866 210.841324 111.257767 212.349106 C 113.383667 213.856903 118.067978 216.850449 121.667328 219.00145 C 125.266678 221.152451 130.696396 224.156204 133.733353 225.676468 C 136.770309 227.196716 141.923935 229.579437 145.185852 230.971405 C 148.447784 232.363342 154.652008 234.682953 158.973053 236.126053 C 163.294098 237.569168 170.104233 239.572678 174.106705 240.578308 C 178.109177 241.583923 184.05278 242.856934 187.314697 243.407227 C 190.576614 243.957489 195.638214 244.649292 198.562683 244.944519 C 201.663544 245.257568 208.997955 245.481323 216.158478 245.481323 C 225.600357 245.481323 229.805328 245.309082 234.359772 244.735764 C 237.617279 244.325684 243.11821 243.26709 246.584045 242.383286 C 250.049911 241.499481 255.01947 239.932922 257.627533 238.902008 C 260.235626 237.871109 264.026001 236.087646 266.050629 234.938782 C 268.075287 233.789886 270.956726 232.096725 272.390411 230.961182 C 273.882019 229.779785 275.264801 227.734283 276.480621 228.50708 C 277.913971 229.418152 275.379364 230.943527 274.12326 232.053497 C 272.99881 233.04718 271.451904 234.428787 270.5513 235.173309 C 269.650635 235.917847 267.717407 237.371719 266.255157 238.404144 C 264.792908 239.436584 261.847961 241.208496 259.710876 242.341721 C 257.573761 243.474945 253.984619 245.130539 251.735016 246.020813 C 249.485413 246.911102 245.620193 248.205902 243.145645 248.898163 C 240.671082 249.590439 236.621796 250.540039 234.147247 251.008408 C 231.672699 251.476776 227.163254 252.125351 224.126312 252.449692 C 220.898575 252.794403 214.951141 253.022308 209.810684 252.99826 Z"/>
        <path id="Path" fill="#ffffff" fill-rule="evenodd" stroke="none" d="M 75.922981 112.524841 C 75.095856 116.072449 112.20517 86.603531 182.676651 105.571533 C 275.899078 130.663162 285.753784 196.222 287.385223 192.692352 C 293.982056 178.420197 289.661499 85.641891 200.26442 63.442688 C 127.748459 45.435425 78.02887 103.492493 75.922981 112.524841 Z"/>
    </g>
</svg>
